<?xml version="1.0" encoding="UTF-8"?>
<svg id="Layer_1" xmlns="http://www.w3.org/2000/svg" version="1.1" viewBox="0 0 841.89 595.28">
  <!-- Generator: Adobe Illustrator 29.0.0, SVG Export Plug-In . SVG Version: 2.1.0 Build 186)  -->
  <defs>
    <style>
      .st0 {
        fill: #4da6dd;
      }
    </style>
  </defs>
  <path class="st0" d="M72,340.98c91.08-91.06,182.09-182.22,273.6-272.87-.67,9.76-1.5,19.49-2.07,29.25-1.02,16.67-1.35,33.46-.02,50.13,1.75,18.67,5.89,38.13,18.09,52.95,17.67,19.56,45.39,22.81,70.02,26.4,24.95,3.17,49.93,6.44,74.46,12.13,9.23,2.25,18.44,4.74,27.52,7.56,11.68,3.72,23.31,7.64,34.79,11.93,11,4.12,21.86,8.58,32.54,13.48,12.08,5.64,23.88,11.85,35.21,18.87,12.15,7.51,23.66,16,34.56,25.2,10.9,9.18,20.96,19.31,30.77,29.65,11.18,12.05,21.78,24.58,32.14,37.31,10.95,13.5,22.03,26.9,32.39,40.87-24.58-9.11-48.99-18.72-73.79-27.2-9.93-3.42-19.91-6.71-29.94-9.88-12.43-3.79-24.95-7.26-37.56-10.38-11.4-2.82-22.91-5.12-34.49-7.11-14.1-2.32-28.37-3.49-42.67-4.09-14.1-.47-28.2.25-42.25,1.57-16.94,1.42-33.61,4.79-50.36,7.74-35.86,3.69-71.62,21.31-91.41,52.28-19.71,30.19-21.76,67.9-18.22,102.81-14.87-10.11-29.62-20.36-44.42-30.54-8.23-5.71-16.52-11.4-24.78-17.12-8.53-5.91-17.09-11.78-25.63-17.67-9.23-6.39-18.47-12.78-27.72-19.14-7.56-5.19-15.1-10.43-22.66-15.65-9.51-6.56-19.04-13.1-28.55-19.69-8.53-5.89-17.09-11.75-25.63-17.67-24.65-17.02-49.31-34.06-73.94-51.11h0Z"/>
</svg>